0
SECTION
2
HEADER
9
$INSUNITS
70
4
0
ENDSEC
0
SECTION
2
TABLES
0
TABLE
2
LTYPE
0
LTYPE
72
65
70
0
2
CONTINUOUS
3
______
73
0
40
0
0
LTYPE
72
65
70
0
2
DASHED
3
_ _ _ 
73
2
40
7.5
49
5
49
-2.5
0
LTYPE
72
65
70
0
2
DOTTED
3
. . . 
73
2
40
1.5
49
0.5
49
-1
0
ENDTAB
0
TABLE
2
LAYER
0
ENDTAB
0
ENDSEC
0
SECTION
2
ENTITIES
0
LINE
8
0
6
CONTINUOUS
10
47.5
20
-19
11
66.5
21
-19
0
LINE
8
0
6
CONTINUOUS
10
66.5
20
-19
11
66.5
21
-38
0
LINE
8
0
6
CONTINUOUS
10
66.5
20
-38
11
47.5
21
-38
0
LINE
8
0
6
CONTINUOUS
10
47.5
20
-38
11
47.5
21
-19
0
LINE
8
0
6
CONTINUOUS
10
223.25
20
-19
11
242.25
21
-19
0
LINE
8
0
6
CONTINUOUS
10
242.25
20
-19
11
242.25
21
-38
0
LINE
8
0
6
CONTINUOUS
10
242.25
20
-38
11
223.25
21
-38
0
LINE
8
0
6
CONTINUOUS
10
223.25
20
-38
11
223.25
21
-19
0
LINE
8
0
6
CONTINUOUS
10
28.5
20
-23.75
11
47.5
21
-23.75
0
LINE
8
0
6
CONTINUOUS
10
47.5
20
-23.75
11
47.5
21
-42.75
0
LINE
8
0
6
CONTINUOUS
10
47.5
20
-42.75
11
28.5
21
-42.75
0
LINE
8
0
6
CONTINUOUS
10
28.5
20
-42.75
11
28.5
21
-23.75
0
LINE
8
0
6
CONTINUOUS
10
66.5
20
-23.75
11
85.5
21
-23.75
0
LINE
8
0
6
CONTINUOUS
10
85.5
20
-23.75
11
85.5
21
-42.75
0
LINE
8
0
6
CONTINUOUS
10
85.5
20
-42.75
11
66.5
21
-42.75
0
LINE
8
0
6
CONTINUOUS
10
66.5
20
-42.75
11
66.5
21
-23.75
0
LINE
8
0
6
CONTINUOUS
10
204.25
20
-23.75
11
223.25
21
-23.75
0
LINE
8
0
6
CONTINUOUS
10
223.25
20
-23.75
11
223.25
21
-42.75
0
LINE
8
0
6
CONTINUOUS
10
223.25
20
-42.75
11
204.25
21
-42.75
0
LINE
8
0
6
CONTINUOUS
10
204.25
20
-42.75
11
204.25
21
-23.75
0
LINE
8
0
6
CONTINUOUS
10
242.25
20
-23.75
11
261.25
21
-23.75
0
LINE
8
0
6
CONTINUOUS
10
261.25
20
-23.75
11
261.25
21
-42.75
0
LINE
8
0
6
CONTINUOUS
10
261.25
20
-42.75
11
242.25
21
-42.75
0
LINE
8
0
6
CONTINUOUS
10
242.25
20
-42.75
11
242.25
21
-23.75
0
LINE
8
0
6
CONTINUOUS
10
-9.5
20
-28.5
11
9.5
21
-28.5
0
LINE
8
0
6
CONTINUOUS
10
9.5
20
-28.5
11
9.5
21
-47.5
0
LINE
8
0
6
CONTINUOUS
10
9.5
20
-47.5
11
-9.5
21
-47.5
0
LINE
8
0
6
CONTINUOUS
10
-9.5
20
-47.5
11
-9.5
21
-28.5
0
LINE
8
0
6
CONTINUOUS
10
9.5
20
-28.5
11
28.5
21
-28.5
0
LINE
8
0
6
CONTINUOUS
10
28.5
20
-28.5
11
28.5
21
-47.5
0
LINE
8
0
6
CONTINUOUS
10
28.5
20
-47.5
11
9.5
21
-47.5
0
LINE
8
0
6
CONTINUOUS
10
9.5
20
-47.5
11
9.5
21
-28.5
0
LINE
8
0
6
CONTINUOUS
10
85.5
20
-28.5
11
104.5
21
-28.5
0
LINE
8
0
6
CONTINUOUS
10
104.5
20
-28.5
11
104.5
21
-47.5
0
LINE
8
0
6
CONTINUOUS
10
104.5
20
-47.5
11
85.5
21
-47.5
0
LINE
8
0
6
CONTINUOUS
10
85.5
20
-47.5
11
85.5
21
-28.5
0
LINE
8
0
6
CONTINUOUS
10
185.25
20
-28.5
11
204.25
21
-28.5
0
LINE
8
0
6
CONTINUOUS
10
204.25
20
-28.5
11
204.25
21
-47.5
0
LINE
8
0
6
CONTINUOUS
10
204.25
20
-47.5
11
185.25
21
-47.5
0
LINE
8
0
6
CONTINUOUS
10
185.25
20
-47.5
11
185.25
21
-28.5
0
LINE
8
0
6
CONTINUOUS
10
261.25
20
-28.5
11
280.25
21
-28.5
0
LINE
8
0
6
CONTINUOUS
10
280.25
20
-28.5
11
280.25
21
-47.5
0
LINE
8
0
6
CONTINUOUS
10
280.25
20
-47.5
11
261.25
21
-47.5
0
LINE
8
0
6
CONTINUOUS
10
261.25
20
-47.5
11
261.25
21
-28.5
0
LINE
8
0
6
CONTINUOUS
10
280.25
20
-28.5
11
299.25
21
-28.5
0
LINE
8
0
6
CONTINUOUS
10
299.25
20
-28.5
11
299.25
21
-47.5
0
LINE
8
0
6
CONTINUOUS
10
299.25
20
-47.5
11
280.25
21
-47.5
0
LINE
8
0
6
CONTINUOUS
10
280.25
20
-47.5
11
280.25
21
-28.5
0
LINE
8
0
6
CONTINUOUS
10
104.5
20
-33.25
11
123.5
21
-33.25
0
LINE
8
0
6
CONTINUOUS
10
123.5
20
-33.25
11
123.5
21
-52.25
0
LINE
8
0
6
CONTINUOUS
10
123.5
20
-52.25
11
104.5
21
-52.25
0
LINE
8
0
6
CONTINUOUS
10
104.5
20
-52.25
11
104.5
21
-33.25
0
LINE
8
0
6
CONTINUOUS
10
166.25
20
-33.25
11
185.25
21
-33.25
0
LINE
8
0
6
CONTINUOUS
10
185.25
20
-33.25
11
185.25
21
-52.25
0
LINE
8
0
6
CONTINUOUS
10
185.25
20
-52.25
11
166.25
21
-52.25
0
LINE
8
0
6
CONTINUOUS
10
166.25
20
-52.25
11
166.25
21
-33.25
0
LINE
8
0
6
CONTINUOUS
10
47.5
20
-38
11
66.5
21
-38
0
LINE
8
0
6
CONTINUOUS
10
66.5
20
-38
11
66.5
21
-57
0
LINE
8
0
6
CONTINUOUS
10
66.5
20
-57
11
47.5
21
-57
0
LINE
8
0
6
CONTINUOUS
10
47.5
20
-57
11
47.5
21
-38
0
LINE
8
0
6
CONTINUOUS
10
223.25
20
-38
11
242.25
21
-38
0
LINE
8
0
6
CONTINUOUS
10
242.25
20
-38
11
242.25
21
-57
0
LINE
8
0
6
CONTINUOUS
10
242.25
20
-57
11
223.25
21
-57
0
LINE
8
0
6
CONTINUOUS
10
223.25
20
-57
11
223.25
21
-38
0
LINE
8
0
6
CONTINUOUS
10
28.5
20
-42.75
11
47.5
21
-42.75
0
LINE
8
0
6
CONTINUOUS
10
47.5
20
-42.75
11
47.5
21
-61.75
0
LINE
8
0
6
CONTINUOUS
10
47.5
20
-61.75
11
28.5
21
-61.75
0
LINE
8
0
6
CONTINUOUS
10
28.5
20
-61.75
11
28.5
21
-42.75
0
LINE
8
0
6
CONTINUOUS
10
66.5
20
-42.75
11
85.5
21
-42.75
0
LINE
8
0
6
CONTINUOUS
10
85.5
20
-42.75
11
85.5
21
-61.75
0
LINE
8
0
6
CONTINUOUS
10
85.5
20
-61.75
11
66.5
21
-61.75
0
LINE
8
0
6
CONTINUOUS
10
66.5
20
-61.75
11
66.5
21
-42.75
0
LINE
8
0
6
CONTINUOUS
10
204.25
20
-42.75
11
223.25
21
-42.75
0
LINE
8
0
6
CONTINUOUS
10
223.25
20
-42.75
11
223.25
21
-61.75
0
LINE
8
0
6
CONTINUOUS
10
223.25
20
-61.75
11
204.25
21
-61.75
0
LINE
8
0
6
CONTINUOUS
10
204.25
20
-61.75
11
204.25
21
-42.75
0
LINE
8
0
6
CONTINUOUS
10
242.25
20
-42.75
11
261.25
21
-42.75
0
LINE
8
0
6
CONTINUOUS
10
261.25
20
-42.75
11
261.25
21
-61.75
0
LINE
8
0
6
CONTINUOUS
10
261.25
20
-61.75
11
242.25
21
-61.75
0
LINE
8
0
6
CONTINUOUS
10
242.25
20
-61.75
11
242.25
21
-42.75
0
LINE
8
0
6
CONTINUOUS
10
-9.5
20
-47.5
11
9.5
21
-47.5
0
LINE
8
0
6
CONTINUOUS
10
9.5
20
-47.5
11
9.5
21
-66.5
0
LINE
8
0
6
CONTINUOUS
10
9.5
20
-66.5
11
-9.5
21
-66.5
0
LINE
8
0
6
CONTINUOUS
10
-9.5
20
-66.5
11
-9.5
21
-47.5
0
LINE
8
0
6
CONTINUOUS
10
9.5
20
-47.5
11
28.5
21
-47.5
0
LINE
8
0
6
CONTINUOUS
10
28.5
20
-47.5
11
28.5
21
-66.5
0
LINE
8
0
6
CONTINUOUS
10
28.5
20
-66.5
11
9.5
21
-66.5
0
LINE
8
0
6
CONTINUOUS
10
9.5
20
-66.5
11
9.5
21
-47.5
0
LINE
8
0
6
CONTINUOUS
10
85.5
20
-47.5
11
104.5
21
-47.5
0
LINE
8
0
6
CONTINUOUS
10
104.5
20
-47.5
11
104.5
21
-66.5
0
LINE
8
0
6
CONTINUOUS
10
104.5
20
-66.5
11
85.5
21
-66.5
0
LINE
8
0
6
CONTINUOUS
10
85.5
20
-66.5
11
85.5
21
-47.5
0
LINE
8
0
6
CONTINUOUS
10
185.25
20
-47.5
11
204.25
21
-47.5
0
LINE
8
0
6
CONTINUOUS
10
204.25
20
-47.5
11
204.25
21
-66.5
0
LINE
8
0
6
CONTINUOUS
10
204.25
20
-66.5
11
185.25
21
-66.5
0
LINE
8
0
6
CONTINUOUS
10
185.25
20
-66.5
11
185.25
21
-47.5
0
LINE
8
0
6
CONTINUOUS
10
261.25
20
-47.5
11
280.25
21
-47.5
0
LINE
8
0
6
CONTINUOUS
10
280.25
20
-47.5
11
280.25
21
-66.5
0
LINE
8
0
6
CONTINUOUS
10
280.25
20
-66.5
11
261.25
21
-66.5
0
LINE
8
0
6
CONTINUOUS
10
261.25
20
-66.5
11
261.25
21
-47.5
0
LINE
8
0
6
CONTINUOUS
10
280.25
20
-47.5
11
299.25
21
-47.5
0
LINE
8
0
6
CONTINUOUS
10
299.25
20
-47.5
11
299.25
21
-66.5
0
LINE
8
0
6
CONTINUOUS
10
299.25
20
-66.5
11
280.25
21
-66.5
0
LINE
8
0
6
CONTINUOUS
10
280.25
20
-66.5
11
280.25
21
-47.5
0
LINE
8
0
6
CONTINUOUS
10
104.5
20
-52.25
11
123.5
21
-52.25
0
LINE
8
0
6
CONTINUOUS
10
123.5
20
-52.25
11
123.5
21
-71.25
0
LINE
8
0
6
CONTINUOUS
10
123.5
20
-71.25
11
104.5
21
-71.25
0
LINE
8
0
6
CONTINUOUS
10
104.5
20
-71.25
11
104.5
21
-52.25
0
LINE
8
0
6
CONTINUOUS
10
166.25
20
-52.25
11
185.25
21
-52.25
0
LINE
8
0
6
CONTINUOUS
10
185.25
20
-52.25
11
185.25
21
-71.25
0
LINE
8
0
6
CONTINUOUS
10
185.25
20
-71.25
11
166.25
21
-71.25
0
LINE
8
0
6
CONTINUOUS
10
166.25
20
-71.25
11
166.25
21
-52.25
0
LINE
8
0
6
CONTINUOUS
10
47.5
20
-57
11
66.5
21
-57
0
LINE
8
0
6
CONTINUOUS
10
66.5
20
-57
11
66.5
21
-76
0
LINE
8
0
6
CONTINUOUS
10
66.5
20
-76
11
47.5
21
-76
0
LINE
8
0
6
CONTINUOUS
10
47.5
20
-76
11
47.5
21
-57
0
LINE
8
0
6
CONTINUOUS
10
223.25
20
-57
11
242.25
21
-57
0
LINE
8
0
6
CONTINUOUS
10
242.25
20
-57
11
242.25
21
-76
0
LINE
8
0
6
CONTINUOUS
10
242.25
20
-76
11
223.25
21
-76
0
LINE
8
0
6
CONTINUOUS
10
223.25
20
-76
11
223.25
21
-57
0
LINE
8
0
6
CONTINUOUS
10
28.5
20
-61.75
11
47.5
21
-61.75
0
LINE
8
0
6
CONTINUOUS
10
47.5
20
-61.75
11
47.5
21
-80.75
0
LINE
8
0
6
CONTINUOUS
10
47.5
20
-80.75
11
28.5
21
-80.75
0
LINE
8
0
6
CONTINUOUS
10
28.5
20
-80.75
11
28.5
21
-61.75
0
LINE
8
0
6
CONTINUOUS
10
66.5
20
-61.75
11
85.5
21
-61.75
0
LINE
8
0
6
CONTINUOUS
10
85.5
20
-61.75
11
85.5
21
-80.75
0
LINE
8
0
6
CONTINUOUS
10
85.5
20
-80.75
11
66.5
21
-80.75
0
LINE
8
0
6
CONTINUOUS
10
66.5
20
-80.75
11
66.5
21
-61.75
0
LINE
8
0
6
CONTINUOUS
10
204.25
20
-61.75
11
223.25
21
-61.75
0
LINE
8
0
6
CONTINUOUS
10
223.25
20
-61.75
11
223.25
21
-80.75
0
LINE
8
0
6
CONTINUOUS
10
223.25
20
-80.75
11
204.25
21
-80.75
0
LINE
8
0
6
CONTINUOUS
10
204.25
20
-80.75
11
204.25
21
-61.75
0
LINE
8
0
6
CONTINUOUS
10
242.25
20
-61.75
11
261.25
21
-61.75
0
LINE
8
0
6
CONTINUOUS
10
261.25
20
-61.75
11
261.25
21
-80.75
0
LINE
8
0
6
CONTINUOUS
10
261.25
20
-80.75
11
242.25
21
-80.75
0
LINE
8
0
6
CONTINUOUS
10
242.25
20
-80.75
11
242.25
21
-61.75
0
LINE
8
0
6
CONTINUOUS
10
-9.5
20
-66.5
11
9.5
21
-66.5
0
LINE
8
0
6
CONTINUOUS
10
9.5
20
-66.5
11
9.5
21
-85.5
0
LINE
8
0
6
CONTINUOUS
10
9.5
20
-85.5
11
-9.5
21
-85.5
0
LINE
8
0
6
CONTINUOUS
10
-9.5
20
-85.5
11
-9.5
21
-66.5
0
LINE
8
0
6
CONTINUOUS
10
9.5
20
-66.5
11
28.5
21
-66.5
0
LINE
8
0
6
CONTINUOUS
10
28.5
20
-66.5
11
28.5
21
-85.5
0
LINE
8
0
6
CONTINUOUS
10
28.5
20
-85.5
11
9.5
21
-85.5
0
LINE
8
0
6
CONTINUOUS
10
9.5
20
-85.5
11
9.5
21
-66.5
0
LINE
8
0
6
CONTINUOUS
10
85.5
20
-66.5
11
104.5
21
-66.5
0
LINE
8
0
6
CONTINUOUS
10
104.5
20
-66.5
11
104.5
21
-85.5
0
LINE
8
0
6
CONTINUOUS
10
104.5
20
-85.5
11
85.5
21
-85.5
0
LINE
8
0
6
CONTINUOUS
10
85.5
20
-85.5
11
85.5
21
-66.5
0
LINE
8
0
6
CONTINUOUS
10
185.25
20
-66.5
11
204.25
21
-66.5
0
LINE
8
0
6
CONTINUOUS
10
204.25
20
-66.5
11
204.25
21
-85.5
0
LINE
8
0
6
CONTINUOUS
10
204.25
20
-85.5
11
185.25
21
-85.5
0
LINE
8
0
6
CONTINUOUS
10
185.25
20
-85.5
11
185.25
21
-66.5
0
LINE
8
0
6
CONTINUOUS
10
261.25
20
-66.5
11
280.25
21
-66.5
0
LINE
8
0
6
CONTINUOUS
10
280.25
20
-66.5
11
280.25
21
-85.5
0
LINE
8
0
6
CONTINUOUS
10
280.25
20
-85.5
11
261.25
21
-85.5
0
LINE
8
0
6
CONTINUOUS
10
261.25
20
-85.5
11
261.25
21
-66.5
0
LINE
8
0
6
CONTINUOUS
10
280.25
20
-66.5
11
299.25
21
-66.5
0
LINE
8
0
6
CONTINUOUS
10
299.25
20
-66.5
11
299.25
21
-85.5
0
LINE
8
0
6
CONTINUOUS
10
299.25
20
-85.5
11
280.25
21
-85.5
0
LINE
8
0
6
CONTINUOUS
10
280.25
20
-85.5
11
280.25
21
-66.5
0
LINE
8
0
6
CONTINUOUS
10
104.5
20
-71.25
11
123.5
21
-71.25
0
LINE
8
0
6
CONTINUOUS
10
123.5
20
-71.25
11
123.5
21
-90.25
0
LINE
8
0
6
CONTINUOUS
10
123.5
20
-90.25
11
104.5
21
-90.25
0
LINE
8
0
6
CONTINUOUS
10
104.5
20
-90.25
11
104.5
21
-71.25
0
LINE
8
0
6
CONTINUOUS
10
166.25
20
-71.25
11
185.25
21
-71.25
0
LINE
8
0
6
CONTINUOUS
10
185.25
20
-71.25
11
185.25
21
-90.25
0
LINE
8
0
6
CONTINUOUS
10
185.25
20
-90.25
11
166.25
21
-90.25
0
LINE
8
0
6
CONTINUOUS
10
166.25
20
-90.25
11
166.25
21
-71.25
0
LINE
8
0
6
CONTINUOUS
10
47.5
20
-76
11
66.5
21
-76
0
LINE
8
0
6
CONTINUOUS
10
66.5
20
-76
11
66.5
21
-95
0
LINE
8
0
6
CONTINUOUS
10
66.5
20
-95
11
47.5
21
-95
0
LINE
8
0
6
CONTINUOUS
10
47.5
20
-95
11
47.5
21
-76
0
LINE
8
0
6
CONTINUOUS
10
223.25
20
-76
11
242.25
21
-76
0
LINE
8
0
6
CONTINUOUS
10
242.25
20
-76
11
242.25
21
-95
0
LINE
8
0
6
CONTINUOUS
10
242.25
20
-95
11
223.25
21
-95
0
LINE
8
0
6
CONTINUOUS
10
223.25
20
-95
11
223.25
21
-76
0
LINE
8
0
6
CONTINUOUS
10
28.5
20
-80.75
11
47.5
21
-80.75
0
LINE
8
0
6
CONTINUOUS
10
47.5
20
-80.75
11
47.5
21
-99.75
0
LINE
8
0
6
CONTINUOUS
10
47.5
20
-99.75
11
28.5
21
-99.75
0
LINE
8
0
6
CONTINUOUS
10
28.5
20
-99.75
11
28.5
21
-80.75
0
LINE
8
0
6
CONTINUOUS
10
66.5
20
-80.75
11
85.5
21
-80.75
0
LINE
8
0
6
CONTINUOUS
10
85.5
20
-80.75
11
85.5
21
-99.75
0
LINE
8
0
6
CONTINUOUS
10
85.5
20
-99.75
11
66.5
21
-99.75
0
LINE
8
0
6
CONTINUOUS
10
66.5
20
-99.75
11
66.5
21
-80.75
0
LINE
8
0
6
CONTINUOUS
10
204.25
20
-80.75
11
223.25
21
-80.75
0
LINE
8
0
6
CONTINUOUS
10
223.25
20
-80.75
11
223.25
21
-99.75
0
LINE
8
0
6
CONTINUOUS
10
223.25
20
-99.75
11
204.25
21
-99.75
0
LINE
8
0
6
CONTINUOUS
10
204.25
20
-99.75
11
204.25
21
-80.75
0
LINE
8
0
6
CONTINUOUS
10
242.25
20
-80.75
11
261.25
21
-80.75
0
LINE
8
0
6
CONTINUOUS
10
261.25
20
-80.75
11
261.25
21
-99.75
0
LINE
8
0
6
CONTINUOUS
10
261.25
20
-99.75
11
242.25
21
-99.75
0
LINE
8
0
6
CONTINUOUS
10
242.25
20
-99.75
11
242.25
21
-80.75
0
LINE
8
0
6
CONTINUOUS
10
-9.5
20
-85.5
11
9.5
21
-85.5
0
LINE
8
0
6
CONTINUOUS
10
9.5
20
-85.5
11
9.5
21
-104.5
0
LINE
8
0
6
CONTINUOUS
10
9.5
20
-104.5
11
-9.5
21
-104.5
0
LINE
8
0
6
CONTINUOUS
10
-9.5
20
-104.5
11
-9.5
21
-85.5
0
LINE
8
0
6
CONTINUOUS
10
9.5
20
-85.5
11
28.5
21
-85.5
0
LINE
8
0
6
CONTINUOUS
10
28.5
20
-85.5
11
28.5
21
-104.5
0
LINE
8
0
6
CONTINUOUS
10
28.5
20
-104.5
11
9.5
21
-104.5
0
LINE
8
0
6
CONTINUOUS
10
9.5
20
-104.5
11
9.5
21
-85.5
0
LINE
8
0
6
CONTINUOUS
10
85.5
20
-85.5
11
104.5
21
-85.5
0
LINE
8
0
6
CONTINUOUS
10
104.5
20
-85.5
11
104.5
21
-104.5
0
LINE
8
0
6
CONTINUOUS
10
104.5
20
-104.5
11
85.5
21
-104.5
0
LINE
8
0
6
CONTINUOUS
10
85.5
20
-104.5
11
85.5
21
-85.5
0
LINE
8
0
6
CONTINUOUS
10
185.25
20
-85.5
11
204.25
21
-85.5
0
LINE
8
0
6
CONTINUOUS
10
204.25
20
-85.5
11
204.25
21
-104.5
0
LINE
8
0
6
CONTINUOUS
10
204.25
20
-104.5
11
185.25
21
-104.5
0
LINE
8
0
6
CONTINUOUS
10
185.25
20
-104.5
11
185.25
21
-85.5
0
LINE
8
0
6
CONTINUOUS
10
261.25
20
-85.5
11
280.25
21
-85.5
0
LINE
8
0
6
CONTINUOUS
10
280.25
20
-85.5
11
280.25
21
-104.5
0
LINE
8
0
6
CONTINUOUS
10
280.25
20
-104.5
11
261.25
21
-104.5
0
LINE
8
0
6
CONTINUOUS
10
261.25
20
-104.5
11
261.25
21
-85.5
0
LINE
8
0
6
CONTINUOUS
10
280.25
20
-85.5
11
299.25
21
-85.5
0
LINE
8
0
6
CONTINUOUS
10
299.25
20
-85.5
11
299.25
21
-104.5
0
LINE
8
0
6
CONTINUOUS
10
299.25
20
-104.5
11
280.25
21
-104.5
0
LINE
8
0
6
CONTINUOUS
10
280.25
20
-104.5
11
280.25
21
-85.5
0
LINE
8
0
6
CONTINUOUS
10
104.5
20
-90.25
11
123.5
21
-90.25
0
LINE
8
0
6
CONTINUOUS
10
123.5
20
-90.25
11
123.5
21
-109.25
0
LINE
8
0
6
CONTINUOUS
10
123.5
20
-109.25
11
104.5
21
-109.25
0
LINE
8
0
6
CONTINUOUS
10
104.5
20
-109.25
11
104.5
21
-90.25
0
LINE
8
0
6
CONTINUOUS
10
166.25
20
-90.25
11
185.25
21
-90.25
0
LINE
8
0
6
CONTINUOUS
10
185.25
20
-90.25
11
185.25
21
-109.25
0
LINE
8
0
6
CONTINUOUS
10
185.25
20
-109.25
11
166.25
21
-109.25
0
LINE
8
0
6
CONTINUOUS
10
166.25
20
-109.25
11
166.25
21
-90.25
0
LINE
8
0
6
CONTINUOUS
10
47.5
20
-95
11
66.5
21
-95
0
LINE
8
0
6
CONTINUOUS
10
66.5
20
-95
11
66.5
21
-114
0
LINE
8
0
6
CONTINUOUS
10
66.5
20
-114
11
47.5
21
-114
0
LINE
8
0
6
CONTINUOUS
10
47.5
20
-114
11
47.5
21
-95
0
LINE
8
0
6
CONTINUOUS
10
223.25
20
-95
11
242.25
21
-95
0
LINE
8
0
6
CONTINUOUS
10
242.25
20
-95
11
242.25
21
-114
0
LINE
8
0
6
CONTINUOUS
10
242.25
20
-114
11
223.25
21
-114
0
LINE
8
0
6
CONTINUOUS
10
223.25
20
-114
11
223.25
21
-95
0
LINE
8
0
6
CONTINUOUS
10
28.5
20
-99.75
11
47.5
21
-99.75
0
LINE
8
0
6
CONTINUOUS
10
47.5
20
-99.75
11
47.5
21
-118.75
0
LINE
8
0
6
CONTINUOUS
10
47.5
20
-118.75
11
28.5
21
-118.75
0
LINE
8
0
6
CONTINUOUS
10
28.5
20
-118.75
11
28.5
21
-99.75
0
LINE
8
0
6
CONTINUOUS
10
66.5
20
-99.75
11
85.5
21
-99.75
0
LINE
8
0
6
CONTINUOUS
10
85.5
20
-99.75
11
85.5
21
-118.75
0
LINE
8
0
6
CONTINUOUS
10
85.5
20
-118.75
11
66.5
21
-118.75
0
LINE
8
0
6
CONTINUOUS
10
66.5
20
-118.75
11
66.5
21
-99.75
0
LINE
8
0
6
CONTINUOUS
10
204.25
20
-99.75
11
223.25
21
-99.75
0
LINE
8
0
6
CONTINUOUS
10
223.25
20
-99.75
11
223.25
21
-118.75
0
LINE
8
0
6
CONTINUOUS
10
223.25
20
-118.75
11
204.25
21
-118.75
0
LINE
8
0
6
CONTINUOUS
10
204.25
20
-118.75
11
204.25
21
-99.75
0
LINE
8
0
6
CONTINUOUS
10
242.25
20
-99.75
11
261.25
21
-99.75
0
LINE
8
0
6
CONTINUOUS
10
261.25
20
-99.75
11
261.25
21
-118.75
0
LINE
8
0
6
CONTINUOUS
10
261.25
20
-118.75
11
242.25
21
-118.75
0
LINE
8
0
6
CONTINUOUS
10
242.25
20
-118.75
11
242.25
21
-99.75
0
LINE
8
0
6
CONTINUOUS
10
-9.5
20
-104.5
11
9.5
21
-104.5
0
LINE
8
0
6
CONTINUOUS
10
9.5
20
-104.5
11
9.5
21
-123.5
0
LINE
8
0
6
CONTINUOUS
10
9.5
20
-123.5
11
-9.5
21
-123.5
0
LINE
8
0
6
CONTINUOUS
10
-9.5
20
-123.5
11
-9.5
21
-104.5
0
LINE
8
0
6
CONTINUOUS
10
9.5
20
-104.5
11
28.5
21
-104.5
0
LINE
8
0
6
CONTINUOUS
10
28.5
20
-104.5
11
28.5
21
-123.5
0
LINE
8
0
6
CONTINUOUS
10
28.5
20
-123.5
11
9.5
21
-123.5
0
LINE
8
0
6
CONTINUOUS
10
9.5
20
-123.5
11
9.5
21
-104.5
0
LINE
8
0
6
CONTINUOUS
10
85.5
20
-104.5
11
104.5
21
-104.5
0
LINE
8
0
6
CONTINUOUS
10
104.5
20
-104.5
11
104.5
21
-123.5
0
LINE
8
0
6
CONTINUOUS
10
104.5
20
-123.5
11
85.5
21
-123.5
0
LINE
8
0
6
CONTINUOUS
10
85.5
20
-123.5
11
85.5
21
-104.5
0
LINE
8
0
6
CONTINUOUS
10
185.25
20
-104.5
11
204.25
21
-104.5
0
LINE
8
0
6
CONTINUOUS
10
204.25
20
-104.5
11
204.25
21
-123.5
0
LINE
8
0
6
CONTINUOUS
10
204.25
20
-123.5
11
185.25
21
-123.5
0
LINE
8
0
6
CONTINUOUS
10
185.25
20
-123.5
11
185.25
21
-104.5
0
LINE
8
0
6
CONTINUOUS
10
104.5
20
-109.25
11
123.5
21
-109.25
0
LINE
8
0
6
CONTINUOUS
10
123.5
20
-109.25
11
123.5
21
-128.25
0
LINE
8
0
6
CONTINUOUS
10
123.5
20
-128.25
11
104.5
21
-128.25
0
LINE
8
0
6
CONTINUOUS
10
104.5
20
-128.25
11
104.5
21
-109.25
0
LINE
8
0
6
CONTINUOUS
10
166.25
20
-109.25
11
185.25
21
-109.25
0
LINE
8
0
6
CONTINUOUS
10
185.25
20
-109.25
11
185.25
21
-128.25
0
LINE
8
0
6
CONTINUOUS
10
185.25
20
-128.25
11
166.25
21
-128.25
0
LINE
8
0
6
CONTINUOUS
10
166.25
20
-128.25
11
166.25
21
-109.25
0
LINE
8
0
6
CONTINUOUS
10
285
20
-109.25
11
304
21
-109.25
0
LINE
8
0
6
CONTINUOUS
10
304
20
-109.25
11
304
21
-128.25
0
LINE
8
0
6
CONTINUOUS
10
304
20
-128.25
11
285
21
-128.25
0
LINE
8
0
6
CONTINUOUS
10
285
20
-128.25
11
285
21
-109.25
0
LINE
8
0
6
CONTINUOUS
10
47.5
20
-128.25
11
66.5
21
-128.25
0
LINE
8
0
6
CONTINUOUS
10
66.5
20
-128.25
11
66.5
21
-147.25
0
LINE
8
0
6
CONTINUOUS
10
66.5
20
-147.25
11
47.5
21
-147.25
0
LINE
8
0
6
CONTINUOUS
10
47.5
20
-147.25
11
47.5
21
-128.25
0
LINE
8
0
6
CONTINUOUS
10
66.5
20
-128.25
11
85.5
21
-128.25
0
LINE
8
0
6
CONTINUOUS
10
85.5
20
-128.25
11
85.5
21
-147.25
0
LINE
8
0
6
CONTINUOUS
10
85.5
20
-147.25
11
66.5
21
-147.25
0
LINE
8
0
6
CONTINUOUS
10
66.5
20
-147.25
11
66.5
21
-128.25
0
LINE
8
0
6
CONTINUOUS
10
85.5
20
-128.25
11
104.5
21
-128.25
0
LINE
8
0
6
CONTINUOUS
10
104.5
20
-128.25
11
104.5
21
-147.25
0
LINE
8
0
6
CONTINUOUS
10
104.5
20
-147.25
11
85.5
21
-147.25
0
LINE
8
0
6
CONTINUOUS
10
85.5
20
-147.25
11
85.5
21
-128.25
0
LINE
8
0
6
CONTINUOUS
10
104.5
20
-128.25
11
123.5
21
-128.25
0
LINE
8
0
6
CONTINUOUS
10
123.5
20
-128.25
11
123.5
21
-147.25
0
LINE
8
0
6
CONTINUOUS
10
123.5
20
-147.25
11
104.5
21
-147.25
0
LINE
8
0
6
CONTINUOUS
10
104.5
20
-147.25
11
104.5
21
-128.25
0
LINE
8
0
6
CONTINUOUS
10
166.25
20
-128.25
11
185.25
21
-128.25
0
LINE
8
0
6
CONTINUOUS
10
185.25
20
-128.25
11
185.25
21
-147.25
0
LINE
8
0
6
CONTINUOUS
10
185.25
20
-147.25
11
166.25
21
-147.25
0
LINE
8
0
6
CONTINUOUS
10
166.25
20
-147.25
11
166.25
21
-128.25
0
LINE
8
0
6
CONTINUOUS
10
185.25
20
-128.25
11
204.25
21
-128.25
0
LINE
8
0
6
CONTINUOUS
10
204.25
20
-128.25
11
204.25
21
-147.25
0
LINE
8
0
6
CONTINUOUS
10
204.25
20
-147.25
11
185.25
21
-147.25
0
LINE
8
0
6
CONTINUOUS
10
185.25
20
-147.25
11
185.25
21
-128.25
0
LINE
8
0
6
CONTINUOUS
10
204.25
20
-128.25
11
223.25
21
-128.25
0
LINE
8
0
6
CONTINUOUS
10
223.25
20
-128.25
11
223.25
21
-147.25
0
LINE
8
0
6
CONTINUOUS
10
223.25
20
-147.25
11
204.25
21
-147.25
0
LINE
8
0
6
CONTINUOUS
10
204.25
20
-147.25
11
204.25
21
-128.25
0
LINE
8
0
6
CONTINUOUS
10
223.25
20
-128.25
11
242.25
21
-128.25
0
LINE
8
0
6
CONTINUOUS
10
242.25
20
-128.25
11
242.25
21
-147.25
0
LINE
8
0
6
CONTINUOUS
10
242.25
20
-147.25
11
223.25
21
-147.25
0
LINE
8
0
6
CONTINUOUS
10
223.25
20
-147.25
11
223.25
21
-128.25
0
LINE
8
0
6
CONTINUOUS
10
266
20
-128.25
11
285
21
-128.25
0
LINE
8
0
6
CONTINUOUS
10
285
20
-128.25
11
285
21
-147.25
0
LINE
8
0
6
CONTINUOUS
10
285
20
-147.25
11
266
21
-147.25
0
LINE
8
0
6
CONTINUOUS
10
266
20
-147.25
11
266
21
-128.25
0
LINE
8
0
6
CONTINUOUS
10
285
20
-128.25
11
304
21
-128.25
0
LINE
8
0
6
CONTINUOUS
10
304
20
-128.25
11
304
21
-147.25
0
LINE
8
0
6
CONTINUOUS
10
304
20
-147.25
11
285
21
-147.25
0
LINE
8
0
6
CONTINUOUS
10
285
20
-147.25
11
285
21
-128.25
0
LINE
8
0
6
CONTINUOUS
10
304
20
-128.25
11
323
21
-128.25
0
LINE
8
0
6
CONTINUOUS
10
323
20
-128.25
11
323
21
-147.25
0
LINE
8
0
6
CONTINUOUS
10
323
20
-147.25
11
304
21
-147.25
0
LINE
8
0
6
CONTINUOUS
10
304
20
-147.25
11
304
21
-128.25
0
LINE
8
0
6
CONTINUOUS
10
261.25
20
-104.5
11
280.25
21
-104.5
0
LINE
8
0
6
CONTINUOUS
10
280.25
20
-104.5
11
280.25
21
-123.5
0
LINE
8
0
6
CONTINUOUS
10
280.25
20
-123.5
11
261.25
21
-123.5
0
LINE
8
0
6
CONTINUOUS
10
261.25
20
-123.5
11
261.25
21
-104.5
0
ENDSEC
0
EOF